<?xml version="1.0" encoding="UTF-8" standalone="no"?>
<!DOCTYPE svg PUBLIC "-//W3C//DTD SVG 1.1//EN"
 "http://www.w3.org/Graphics/SVG/1.1/DTD/svg11.dtd">
<!-- Generated by graphviz version 14.1.3 (20260303.0454)
 -->
<!-- Pages: 1 -->
<svg width="404pt" height="783pt"
 viewBox="0.00 0.00 404.00 783.00" xmlns="http://www.w3.org/2000/svg" xmlns:xlink="http://www.w3.org/1999/xlink">
<g id="graph0" class="graph" transform="scale(1 1) rotate(0) translate(4 779)">
<polygon fill="white" stroke="none" points="-4,4 -4,-779 399.75,-779 399.75,4 -4,4"/>
<g id="clust3" class="cluster">
<title>cluster_associated</title>
</g>
<!-- Law -->
<g id="node1" class="node">
<title>Law</title>
<g id="a_node1"><a xlink:href="../Law" xlink:title="&lt;TABLE&gt;">
<polygon fill="lightgray" stroke="none" points="146.75,-748.88 146.75,-765.12 171.25,-765.12 171.25,-748.88 146.75,-748.88"/>
<text xml:space="preserve" text-anchor="start" x="147.75" y="-752.88" font-family="Arial" font-size="12.00">Law</text>
<polygon fill="none" stroke="black" points="145.75,-747.88 145.75,-766.12 172.25,-766.12 172.25,-747.88 145.75,-747.88"/>
</a>
</g>
</g>
<!-- Bylaw -->
<g id="node2" class="node">
<title>Bylaw</title>
<g id="a_node2"><a xlink:href="../Bylaw" xlink:title="&lt;TABLE&gt;">
<polygon fill="lightgray" stroke="none" points="141.5,-675.88 141.5,-692.12 176.5,-692.12 176.5,-675.88 141.5,-675.88"/>
<text xml:space="preserve" text-anchor="start" x="142.5" y="-679.88" font-family="Arial" font-size="12.00">Bylaw</text>
<polygon fill="none" stroke="black" points="140.5,-674.88 140.5,-693.12 177.5,-693.12 177.5,-674.88 140.5,-674.88"/>
</a>
</g>
</g>
<!-- Bylaw&#45;&gt;Law -->
<g id="edge1" class="edge">
<title>Bylaw&#45;&gt;Law</title>
<path fill="none" stroke="black" d="M159,-701.71C159,-709.47 159,-718.92 159,-727.74"/>
<polygon fill="none" stroke="black" points="155.5,-727.66 159,-737.66 162.5,-727.66 155.5,-727.66"/>
</g>
<!-- Invis -->
<!-- Bylaw&#45;&gt;Invis -->
<!-- BylawTypeCode -->
<g id="node4" class="node">
<title>BylawTypeCode</title>
<g id="a_node4"><a xlink:href="../BylawTypeCode" xlink:title="&lt;TABLE&gt;">
<polygon fill="lightgray" stroke="none" points="16.75,-515.62 16.75,-531.88 107.25,-531.88 107.25,-515.62 16.75,-515.62"/>
<text xml:space="preserve" text-anchor="start" x="17.75" y="-519.62" font-family="Arial" font-size="12.00">BylawTypeCode</text>
<polygon fill="none" stroke="black" points="15.75,-514.62 15.75,-532.88 108.25,-532.88 108.25,-514.62 15.75,-514.62"/>
</a>
</g>
</g>
<!-- Bylaw&#45;&gt;BylawTypeCode -->
<g id="edge16" class="edge">
<title>Bylaw&#45;&gt;BylawTypeCode</title>
<path fill="none" stroke="black" d="M143.45,-666.22C136.04,-657.79 127.32,-647.22 120.5,-637 102.07,-609.39 85.02,-575.27 74.14,-551.95"/>
<polygon fill="black" stroke="black" points="77.44,-550.75 70.08,-543.12 71.08,-553.67 77.44,-550.75"/>
<polygon fill="white" stroke="none" points="120.5,-600.25 120.5,-621.75 199,-621.75 199,-600.25 120.5,-600.25"/>
<text xml:space="preserve" text-anchor="start" x="124.5" y="-607.25" font-family="Arial" font-size="11.00">legislationType</text>
</g>
<!-- City -->
<g id="node6" class="node">
<title>City</title>
<g id="a_node6"><a xlink:href="../City" xlink:title="&lt;TABLE&gt;">
<polygon fill="lightgray" stroke="none" points="54.5,-330.38 54.5,-346.62 77.5,-346.62 77.5,-330.38 54.5,-330.38"/>
<text xml:space="preserve" text-anchor="start" x="55.5" y="-334.38" font-family="Arial" font-size="12.00">City</text>
<polygon fill="none" stroke="black" points="53.5,-329.38 53.5,-347.62 78.5,-347.62 78.5,-329.38 53.5,-329.38"/>
</a>
</g>
</g>
<!-- Bylaw&#45;&gt;City -->
<g id="edge17" class="edge">
<title>Bylaw&#45;&gt;City</title>
<path fill="none" stroke="black" stroke-dasharray="5,2" d="M178.79,-666.25C186.67,-658.29 194.85,-648.1 199,-637 205.85,-618.68 207.49,-610.61 199,-593 187.53,-569.21 167.14,-577.98 152.5,-556 114.1,-498.32 138.9,-468.97 110,-406 103.55,-391.94 94.35,-377.49 86.03,-365.67"/>
<polygon fill="black" stroke="black" points="88.91,-363.68 80.21,-357.64 83.25,-367.79 88.91,-363.68"/>
<polygon fill="white" stroke="none" points="152.5,-491.5 152.5,-556 261,-556 261,-491.5 152.5,-491.5"/>
<text xml:space="preserve" text-anchor="start" x="184.62" y="-541.5" font-family="Arial" font-size="11.00">redefines</text>
<text xml:space="preserve" text-anchor="start" x="156.5" y="-520" font-family="Arial" font-size="11.00">legislationJurisdiction</text>
<text xml:space="preserve" text-anchor="start" x="197.75" y="-498.5" font-family="Arial" font-size="11.00">0..1</text>
</g>
<!-- n731f58bd9e014cd09116d86a58fc00e8b4 -->
<g id="node11" class="node">
<title>n731f58bd9e014cd09116d86a58fc00e8b4</title>
<polygon fill="lightyellow" stroke="none" points="270.25,-514.62 270.25,-532.88 329.75,-532.88 329.75,-514.62 270.25,-514.62"/>
<text xml:space="preserve" text-anchor="start" x="272.25" y="-519.62" font-family="Arial" font-size="12.00">«unionOf»</text>
<polygon fill="none" stroke="black" points="270.25,-514.62 270.25,-532.88 329.75,-532.88 329.75,-514.62 270.25,-514.62"/>
</g>
<!-- Bylaw&#45;&gt;n731f58bd9e014cd09116d86a58fc00e8b4 -->
<g id="edge15" class="edge">
<title>Bylaw&#45;&gt;n731f58bd9e014cd09116d86a58fc00e8b4</title>
<path fill="none" stroke="black" d="M185.7,-673.4C199.21,-667.58 215.21,-659.11 227,-648 256.11,-620.57 277.46,-578.95 289.31,-551.81"/>
<polygon fill="black" stroke="black" points="292.41,-553.46 293.07,-542.88 285.96,-550.74 292.41,-553.46"/>
<polygon fill="white" stroke="none" points="268.12,-600.25 268.12,-621.75 312.87,-621.75 312.87,-600.25 268.12,-600.25"/>
<text xml:space="preserve" text-anchor="start" x="272.12" y="-607.25" font-family="Arial" font-size="11.00">impacts</text>
</g>
<!-- Invis&#45;&gt;BylawTypeCode -->
<!-- cdm1_Activity -->
<g id="node5" class="node">
<title>cdm1_Activity</title>
<g id="a_node5"><a xlink:href="https://w3id.org/citydata/part1/v1/Activity" xlink:title="&lt;TABLE&gt;">
<polygon fill="lightgray" stroke="none" points="27.75,-415.88 27.75,-432.12 100.25,-432.12 100.25,-415.88 27.75,-415.88"/>
<text xml:space="preserve" text-anchor="start" x="28.75" y="-419.88" font-family="Arial" font-size="12.00">cdm1:Activity</text>
<polygon fill="none" stroke="black" points="26.75,-414.88 26.75,-433.12 101.25,-433.12 101.25,-414.88 26.75,-414.88"/>
</a>
</g>
</g>
<!-- BylawTypeCode&#45;&gt;cdm1_Activity -->
<!-- cdm1_Activity&#45;&gt;City -->
<!-- JurisdictionalArea -->
<g id="node7" class="node">
<title>JurisdictionalArea</title>
<g id="a_node7"><a xlink:href="../JurisdictionalArea" xlink:title="&lt;TABLE&gt;">
<polygon fill="lightgray" stroke="none" points="17,-244.88 17,-261.12 115,-261.12 115,-244.88 17,-244.88"/>
<text xml:space="preserve" text-anchor="start" x="18" y="-248.88" font-family="Arial" font-size="12.00">JurisdictionalArea</text>
<polygon fill="none" stroke="black" points="16,-243.88 16,-262.12 116,-262.12 116,-243.88 16,-243.88"/>
</a>
</g>
</g>
<!-- City&#45;&gt;JurisdictionalArea -->
<!-- LandArea -->
<g id="node8" class="node">
<title>LandArea</title>
<g id="a_node8"><a xlink:href="../LandArea" xlink:title="&lt;TABLE&gt;">
<polygon fill="lightgray" stroke="none" points="52.75,-171.88 52.75,-188.12 107.25,-188.12 107.25,-171.88 52.75,-171.88"/>
<text xml:space="preserve" text-anchor="start" x="53.75" y="-175.88" font-family="Arial" font-size="12.00">LandArea</text>
<polygon fill="none" stroke="black" points="51.75,-170.88 51.75,-189.12 108.25,-189.12 108.25,-170.88 51.75,-170.88"/>
</a>
</g>
</g>
<!-- JurisdictionalArea&#45;&gt;LandArea -->
<!-- Organization -->
<g id="node9" class="node">
<title>Organization</title>
<g id="a_node9"><a xlink:href="../Organization" xlink:title="&lt;TABLE&gt;">
<polygon fill="lightgray" stroke="none" points="44.88,-98.88 44.88,-115.12 115.12,-115.12 115.12,-98.88 44.88,-98.88"/>
<text xml:space="preserve" text-anchor="start" x="45.88" y="-102.88" font-family="Arial" font-size="12.00">Organization</text>
<polygon fill="none" stroke="black" points="43.88,-97.88 43.88,-116.12 116.12,-116.12 116.12,-97.88 43.88,-97.88"/>
</a>
</g>
</g>
<!-- LandArea&#45;&gt;Organization -->
<!-- Person -->
<g id="node10" class="node">
<title>Person</title>
<g id="a_node10"><a xlink:href="../Person" xlink:title="&lt;TABLE&gt;">
<polygon fill="lightgray" stroke="none" points="64.88,-25.88 64.88,-42.12 105.12,-42.12 105.12,-25.88 64.88,-25.88"/>
<text xml:space="preserve" text-anchor="start" x="65.88" y="-29.88" font-family="Arial" font-size="12.00">Person</text>
<polygon fill="none" stroke="black" points="63.88,-24.88 63.88,-43.12 106.12,-43.12 106.12,-24.88 63.88,-24.88"/>
</a>
</g>
</g>
<!-- Organization&#45;&gt;Person -->
<!-- n731f58bd9e014cd09116d86a58fc00e8b4&#45;&gt;cdm1_Activity -->
<g id="edge10" class="edge">
<title>n731f58bd9e014cd09116d86a58fc00e8b4&#45;&gt;cdm1_Activity</title>
<path fill="none" stroke="black" stroke-dasharray="1,5" d="M280.56,-505.84C273.54,-500.52 265.3,-495.1 257,-491.5 218.07,-474.62 203.5,-486.93 163.25,-473.5 142.72,-466.65 121,-456.41 103.14,-447.11"/>
<polygon fill="black" stroke="black" points="104.91,-444.09 94.43,-442.48 101.62,-450.27 104.91,-444.09"/>
<text xml:space="preserve" text-anchor="middle" x="183.12" y="-463.05" font-family="Arial" font-size="11.00">member</text>
</g>
<!-- n731f58bd9e014cd09116d86a58fc00e8b4&#45;&gt;JurisdictionalArea -->
<g id="edge11" class="edge">
<title>n731f58bd9e014cd09116d86a58fc00e8b4&#45;&gt;JurisdictionalArea</title>
<path fill="none" stroke="black" stroke-dasharray="1,5" d="M276.86,-505.79C270.45,-501.13 263.47,-496.09 257,-491.5 245.54,-483.37 241.13,-483.24 231,-473.5 167.06,-412.01 108.89,-323.94 81.89,-280.42"/>
<polygon fill="black" stroke="black" points="85.02,-278.82 76.8,-272.13 79.06,-282.49 85.02,-278.82"/>
<text xml:space="preserve" text-anchor="middle" x="174.71" y="-377.55" font-family="Arial" font-size="11.00">member</text>
</g>
<!-- n731f58bd9e014cd09116d86a58fc00e8b4&#45;&gt;LandArea -->
<g id="edge12" class="edge">
<title>n731f58bd9e014cd09116d86a58fc00e8b4&#45;&gt;LandArea</title>
<path fill="none" stroke="black" stroke-dasharray="1,5" d="M290.96,-505.98C266.36,-460.83 195.38,-333.47 125,-235 118.15,-225.42 110.08,-215.39 102.67,-206.61"/>
<polygon fill="black" stroke="black" points="105.42,-204.45 96.25,-199.14 100.11,-209.01 105.42,-204.45"/>
<text xml:space="preserve" text-anchor="middle" x="223.86" y="-334.8" font-family="Arial" font-size="11.00">member</text>
</g>
<!-- n731f58bd9e014cd09116d86a58fc00e8b4&#45;&gt;Organization -->
<g id="edge13" class="edge">
<title>n731f58bd9e014cd09116d86a58fc00e8b4&#45;&gt;Organization</title>
<path fill="none" stroke="black" stroke-dasharray="1,5" d="M300.28,-505.8C300.57,-486.3 301,-453.34 301,-425 301,-425 301,-425 301,-179 301,-142.79 192.09,-122.43 127.18,-113.51"/>
<polygon fill="black" stroke="black" points="127.87,-110.07 117.5,-112.23 126.95,-117.01 127.87,-110.07"/>
<text xml:space="preserve" text-anchor="middle" x="320.88" y="-292.05" font-family="Arial" font-size="11.00">member</text>
</g>
<!-- n731f58bd9e014cd09116d86a58fc00e8b4&#45;&gt;Person -->
<g id="edge14" class="edge">
<title>n731f58bd9e014cd09116d86a58fc00e8b4&#45;&gt;Person</title>
<path fill="none" stroke="black" stroke-dasharray="1,5" d="M316.8,-506.04C333.3,-487.79 356,-456.88 356,-425 356,-425 356,-425 356,-106 356,-58.45 197.89,-42.12 123.21,-37.05"/>
<polygon fill="black" stroke="black" points="123.69,-33.58 113.49,-36.43 123.24,-40.56 123.69,-33.58"/>
<text xml:space="preserve" text-anchor="middle" x="375.88" y="-249.3" font-family="Arial" font-size="11.00">member</text>
</g>
</g>
</svg>
